<?xml version="1.0" encoding="UTF-8" standalone="no"?>
<!DOCTYPE svg PUBLIC "-//W3C//DTD SVG 1.1//EN" "http://www.w3.org/Graphics/SVG/1.1/DTD/svg11.dtd">
<svg width="100%" height="100%" viewBox="0 0 283 283" version="1.1" xmlns="http://www.w3.org/2000/svg" xmlns:xlink="http://www.w3.org/1999/xlink" xml:space="preserve" xmlns:serif="http://www.serif.com/" style="fill-rule:evenodd;clip-rule:evenodd;stroke-linejoin:round;stroke-miterlimit:2;">
    <g transform="matrix(1.01902,0,0,0.566559,-552.508,-99.1467)">
        <path d="M796.216,563.194C771.314,629.995 728.949,674.002 680.915,674.002C604.354,674.002 542.196,562.204 542.196,424.5C542.196,286.796 604.354,174.998 680.915,174.998C726.721,174.998 767.371,215.016 792.638,276.657C799.051,288.026 807.171,297.045 819.634,295L819.634,554C808.434,553.058 801.326,557.097 796.216,563.194ZM680.915,231.99C621.842,231.99 573.882,318.251 573.882,424.5C573.882,530.749 621.842,617.01 680.915,617.01C739.988,617.01 787.948,530.749 787.948,424.5C787.948,318.251 739.988,231.99 680.915,231.99Z" style="fill:rgb(255,217,21);"/>
    </g>
</svg>
